<?xml version="1.0" standalone="no"?>
<!DOCTYPE svg PUBLIC "-//W3C//DTD SVG 1.1//EN" "http://www.w3.org/Graphics/SVG/1.1/DTD/svg11.dtd" >
<!--
2013-9-30: Created.
-->
<svg>
<metadata>
Created by iconfont
</metadata>
<defs>

<font id="iconfont" horiz-adv-x="1024" >
  <font-face
    font-family="iconfont"
    font-weight="500"
    font-stretch="normal"
    units-per-em="1024"
    ascent="896"
    descent="-128"
  />
    <missing-glyph />
    
    <glyph glyph-name="daohang" unicode="&#58912;" d="M783.52896 655.52896c149.9648-149.9648 149.9648-393.09824 0-543.05792-149.9648-149.9648-393.09824-149.9648-543.05792 0-149.9648 149.9648-149.9648 393.09824 0 543.05792 149.9648 149.9648 393.09824 149.9648 543.05792 0z m-79.64672-79.64672c-105.97376 105.96864-277.79072 105.96864-383.76448 0-105.96864-105.97376-105.96864-277.79072 0-383.76448 105.97376-105.96864 277.79072-105.96864 383.76448 0 105.96864 105.97376 105.96864 277.79072 0 383.76448zM783.52896 655.52896L578.56 317.44l-338.08896-204.96896L445.44 450.56zM340.89984 173.35296l-100.4288-60.88192 60.8768 100.4288a274.52928 274.52928 0 0 1 39.552-39.54688z m442.62912 482.176l-60.88192-100.4288a274.52928 274.52928 0 0 1-39.54688 39.54688l100.4288 60.88192z"  horiz-adv-x="1024" />

    
    <glyph glyph-name="tupian" unicode="&#58913;" d="M936.96 721.92v-675.84H87.04V721.92h849.92z m-112.64-112.64H199.68v-450.56h624.64V609.28zM399.36 558.08l149.41696-189.78304L605.59872 450.56l293.80096-404.48h-139.22304l-152.2688 209.63328-53.1968-77.03552-132.02944 167.69024L278.54336 46.08H153.6zM332.61056 158.72l-54.0672-112.64H153.6l54.0672 112.64h124.94336z m484.97152 0l81.8176-112.64h-139.22304l-81.8176 112.64h139.22304z"  horiz-adv-x="1024" />

    
    <glyph glyph-name="biaoqian" unicode="&#58914;" d="M906.15808 602.27584l16.4608-274.2784-576.42496-332.8-245.76 425.67168 576.42496 332.8 229.2992-151.3984z m-109.056-62.96576l-124.2112 82.00192-418.5856-241.67424 133.12-230.56896 418.5856 241.67424-8.9088 148.56704zM348.73856 564.22912l245.76-425.66656-88.6784-51.2-245.76 425.66656zM538.17856 236.11392l56.32-97.55136-88.6784-51.2-56.32 97.55136 88.6784 51.2z m-189.44 328.11008l56.32-97.54624-88.6784-51.19488-56.32 97.54624 88.6784 51.19488z"  horiz-adv-x="1024" />

    
    <glyph glyph-name="shipin" unicode="&#58915;" d="M757.76 721.92v-179.29216L936.96 680.96v-593.92l-179.2 138.33216V46.08H87.04V721.92h670.72z m-112.64-112.64H199.68v-450.56h445.44V609.28z m179.2-157.56288l-66.56-51.3792v-32.67072l66.56-51.3792V451.71712zM430.08 537.6v-102.4H240.64V537.6h189.44zM757.76 542.63296v-317.25568L645.12 312.32V455.68l112.64 86.95296z"  horiz-adv-x="1024" />

    
    <glyph glyph-name="shangcheng" unicode="&#58916;" d="M824.41216 768L896 0H128L201.63584 768h622.77632z m-99.9424-112.64H301.312l-46.0288-542.72h513.7664l-44.57984 542.72zM696.32 768v-199.16288c0-101.79584-82.52416-184.32-184.32-184.32s-184.32 82.52416-184.32 184.32V768h102.4v-199.16288c0-44.70272 35.80928-81.04448 80.3072-81.90464l1.6128-0.01536c44.70272 0 81.0496 35.80928 81.90464 80.3072l0.01536 1.6128V768h102.4zM430.08 768v-112.64H327.68V768h102.4z m266.24 0v-112.64h-102.4V768h102.4z"  horiz-adv-x="1024" />

    
    <glyph glyph-name="shengyin" unicode="&#58917;" d="M711.68 768v-768l-430.08 128H128V640h153.6l430.08 128z m-112.64-616.95488V616.96L298.00448 527.36H240.64v-286.72h57.36448L599.04 151.04512zM435.2 82.28864l-102.4 30.47936V655.24224l102.4 30.47424zM332.8 230.29248l102.4-30.47936v-117.52448l-102.4 30.47936v117.52448z m102.4 455.424v-117.51936l-102.4-30.47936V655.24224l102.4 30.47424zM768 435.2h143.36v-102.4h-143.36zM787.84512 259.3792l124.14976-71.68-51.2-88.6784-124.14976 71.68zM736.64512 597.2992l124.14976 71.68 51.2-88.6784-124.14976-71.68z"  horiz-adv-x="1024" />

    
    <glyph glyph-name="ka" unicode="&#58918;" d="M936.96 721.92v-675.84H87.04V721.92h849.92z m-112.64-112.64H199.68v-450.56h624.64V609.28z m-327.68-276.48v-102.4H240.64v102.4h256zM87.04 517.12h849.92v-122.88H87.04zM199.68 517.12v-122.88H87.04V517.12h112.64z m737.28 0v-122.88h-112.64V517.12h112.64z"  horiz-adv-x="1024" />

    
    <glyph glyph-name="dingwei" unicode="&#58919;" d="M512 808.96c186.624 0 337.92-151.296 337.92-337.92 0-162.048-112.64-332.71296-337.92-512-225.28 179.28704-337.92 349.952-337.92 512 0 186.624 151.296 337.92 337.92 337.92z m0-112.64c-124.416 0-225.28-100.864-225.28-225.28 0-105.1904 71.39328-227.03616 222.37696-362.32704l2.90304-2.5856 2.90304 2.5856c149.248 133.7344 220.7232 254.33088 222.34624 358.69184L737.28 471.04c0 124.416-100.864 225.28-225.28 225.28zM512 105.61024l79.488-79.48288A1732.98688 1732.98688 0 0 0 512-40.96a1732.97664 1732.97664 0 0 0-79.49312 67.09248L512 105.61024zM512 525.08672L591.64672 445.44 512 365.79328 432.35328 445.44z"  horiz-adv-x="1024" />

    
    <glyph glyph-name="tixing" unicode="&#58920;" d="M512 808.96c25.1392 0 46.0544-18.1248 50.3808-42.01984C709.12 754.38592 824.32 631.28576 824.32 481.28v-157.49632a426.79296 426.79296 0 0 1 69.39648-233.28768L896 87.04H128a426.79296 426.79296 0 0 1 71.68 236.74368V481.28c0 150.00576 115.19488 273.1008 261.9392 285.66528C465.95072 790.8352 486.8608 808.96 512 808.96z m25.6-153.6H486.4c-95.1808 0-172.5184-76.3904-174.0544-171.20256L312.32 481.28v-157.49632c0-40.0896-4.46464-79.84128-13.18912-118.55872L297.84576 199.68h428.30848l-0.69632 2.95936a539.38176 539.38176 0 0 0-13.75744 116.59264l-0.02048 4.55168V481.28c0 95.1808-76.3904 172.5184-171.20256 174.0544L537.6 655.36zM435.2 199.68h153.6v-122.88c0-42.41408-34.38592-76.8-76.8-76.8-42.41408 0-76.8 34.38592-76.8 76.8v122.88zM435.2 199.68h153.6v-112.64H435.2z"  horiz-adv-x="1024" />

    
    <glyph glyph-name="shuaxin" unicode="&#58921;" d="M211.5072 83.5072l-10.85952 148.43904 148.43392-10.86464-28.96384-28.96384c105.97376-105.96864 277.79072-105.96864 383.76448 0 83.84 83.84512 101.3504 208.90624 52.52096 309.9648l88.6272-22.4 8.21248 80.63488c74.73664-144.55296 51.49696-326.63552-69.71392-447.8464-149.9648-149.9648-393.09824-149.9648-543.05792 0l-28.96384-28.96384zM812.4928 684.4928l10.85952-148.43904-148.43392 10.86464 28.96384 28.96384c-105.97376 105.96864-277.79072 105.96864-383.76448 0-83.84-83.84512-101.3504-208.90624-52.52096-309.9648l-88.6272 22.4-8.2176-80.62976C96.02048 352.24064 119.26016 534.3232 240.47104 655.52896c149.9648 149.9648 393.09824 149.9648 543.05792 0l28.96384 28.96384zM240.47104 112.47104l79.64672 79.64672-119.47008 39.82848zM783.52896 655.52896l39.82336-119.4752-119.47008 39.82848z"  horiz-adv-x="1024" />

    
    <glyph glyph-name="shouye" unicode="&#58922;" d="M512 768l384-204.8v-563.2H128V563.2l384 204.8z m0-127.65184L240.64 495.62112V112.64h542.72V495.62112l-271.36 144.72704zM450.56 317.44h122.88v-317.44H450.56zM450.56 112.64h122.88v-112.64H450.56z"  horiz-adv-x="1024" />

    
    <glyph glyph-name="sousuo" unicode="&#58923;" d="M241.60768 674.87232c147.96288 147.96288 387.85536 147.96288 535.81824 0 133.1712-133.1712 146.4832-340.80768 39.936-488.86784l90.3936-90.3936-86.8864-86.8864-90.38848 90.3936c-148.06016-106.5472-355.70176-93.2352-488.87296 39.936-147.96288 147.968-147.96288 387.85536 0 535.81824zM320.7168 595.7632c-104.2688-104.2688-104.2688-273.32096 0-377.58976 104.2688-104.2688 273.32096-104.2688 377.58976 0 104.2688 104.2688 104.2688 273.32096 0 377.58976-104.2688 104.2688-273.32096 104.2688-377.58976 0zM736.73216 266.63936l80.63488-80.63488a381.56288 381.56288 0 0 0-39.94112-46.9504 381.56288 381.56288 0 0 0-46.95552-39.94112l-80.62976 80.63488a267.75552 267.75552 0 0 1 48.47104 38.42048c14.9504 14.9504 27.76064 31.23712 38.42048 48.47104z"  horiz-adv-x="1024" />

    
    <glyph glyph-name="wode" unicode="&#58924;" d="M512 788.48c127.24736 0 230.4-103.15264 230.4-230.4 0-59.1104-22.26176-113.01888-58.8544-153.8048C832.7936 338.34496 936.96 189.01504 936.96 15.36v-35.84H87.04v35.84c0 173.66016 104.1664 322.99008 253.42464 388.9152C303.85664 445.06112 281.6 498.9696 281.6 558.08c0 127.24736 103.15264 230.4 230.4 230.4z m0-460.8c-144.896 0-266.73664-98.6624-302.01856-232.4736l-0.78336-3.0464H814.7968l-0.77824 3.0464c-34.86208 132.21376-154.24 230.1184-296.8576 232.43264L512 327.68z m0 348.16c-65.03936 0-117.76-52.72064-117.76-117.76s52.72064-117.76 117.76-117.76 117.76 52.72064 117.76 117.76-52.72064 117.76-117.76 117.76zM512 440.32c61.04064 0 119.07584-12.87168 171.53536-36.0448C641.36192 357.25824 580.13696 327.68 512 327.68s-129.36192 29.57824-171.5456 76.5952C392.92416 427.4432 450.95936 440.32 512 440.32z"  horiz-adv-x="1024" />

    
    <glyph glyph-name="qiandao" unicode="&#58925;" d="M936.96 696.32v-675.84H87.04V696.32h849.92z m-112.64-112.64H199.68v-450.56h624.64V583.68zM250.88 783.36h122.88v-225.28H250.88zM650.24 783.36h122.88v-225.28h-122.88zM373.76 696.32v-112.64H250.88V696.32h122.88z m399.36 0v-112.64h-122.88V696.32h122.88zM489.65632 198.1184l-173.77792 173.77792L395.52 451.54304l94.1312-94.12608 159.29856 159.29344 79.64672-79.64672-238.94528-238.9504z"  horiz-adv-x="1024" />

    
    <glyph glyph-name="shijian" unicode="&#58926;" d="M512 808.96c234.7008 0 424.96-190.2592 424.96-424.96s-190.2592-424.96-424.96-424.96-424.96 190.2592-424.96 424.96 190.2592 424.96 424.96 424.96z m0-112.64c-172.4928 0-312.32-139.8272-312.32-312.32s139.8272-312.32 312.32-312.32 312.32 139.8272 312.32 312.32-139.8272 312.32-312.32 312.32zM455.68 588.8h112.64v-307.2H455.68zM734.48448 397.42976l-19.5584-110.9248-302.53056 53.34528 19.5584 110.9248zM455.68 446.592l112.64-19.86048v-114.37568l-112.64 19.86048V446.592z"  horiz-adv-x="1024" />

    
    <glyph glyph-name="youhuiquan" unicode="&#58927;" d="M936.96 721.92v-281.6c-31.104 0-56.32-25.216-56.32-56.32s25.216-56.32 56.32-56.32v-281.6H87.04v281.6c31.104 0 56.32 25.216 56.32 56.32s-25.216 56.32-56.32 56.32V721.92h849.92z m-112.64-112.64H199.68v-99.34848l1.2032-1.08032c33.2288-30.32064 54.31296-73.72288 55.0912-122.0608L256 384c0-49.4592-21.248-93.952-55.1168-124.8512l-1.2032-1.0752V158.72h624.64v99.34848l-1.2032 1.08032c-33.2288 30.32064-54.31296 73.72288-55.0912 122.0608L768 384c0 49.4592 21.248 93.952 55.1168 124.8512l1.2032 1.08544V609.28zM435.2 158.72v-112.64H322.56v112.64h112.64z m0 563.2v-112.64H322.56V721.92h112.64zM322.56 534.18496h112.64v-112.64H322.56zM322.56 346.45504h112.64v-112.64H322.56z"  horiz-adv-x="1024" />

    
    <glyph glyph-name="xiaoxi" unicode="&#58928;" d="M936.96 768v-675.84h-253.44L512 0l-171.52 92.16H87.04V768h849.92z m-112.64-112.64H199.68v-450.56h169.14432L512 127.872 655.17568 204.8H824.32V655.36zM199.68 496.64v-122.88H87.04V496.64h112.64z m737.28 0v-122.88h-112.64V496.64h112.64zM307.2 496.64h409.6v-122.88H307.2z"  horiz-adv-x="1024" />

    
    <glyph glyph-name="yinle" unicode="&#58929;" d="M430.08 604.16c166.8352 0 302.08-135.2448 302.08-302.08s-135.2448-302.08-302.08-302.08-302.08 135.2448-302.08 302.08 135.2448 302.08 302.08 302.08z m0-112.64c-104.6272 0-189.44-84.8128-189.44-189.44s84.8128-189.44 189.44-189.44 189.44 84.8128 189.44 189.44-84.8128 189.44-189.44 189.44zM538.19392 768h114.35008l78.94016-447.48288-110.92992-19.5584zM596.224 670.45376l56.32 97.54624 239.44192-138.24-56.32-97.54624zM573.45536 568.03328c69.51936-37.5552 122.63936-101.57056 145.8688-178.54976l12.16-68.9664-110.92992-19.5584-1.10592 6.2976a188.9792 188.9792 0 0 1-9.71776 55.09632l-36.2752 205.68064zM652.544 768l25.5488-144.80896-127.31904 73.50784L538.19392 768h114.34496z"  horiz-adv-x="1024" />

    
    <glyph glyph-name="xinpin" unicode="&#58930;" d="M936.96 721.92v-675.84H87.04V721.92h849.92z m-112.64-112.64H199.68v-450.56h624.64V609.28zM447.01184 406.1184L394.24 199.68H281.6l94.24896 368.64h112.64l90.57792-206.4384L631.84896 568.32h112.64L650.24 199.68h-112.64zM579.06688 361.8816L650.24 199.68h-112.64l41.46688 162.2016zM488.48896 568.32v-0.00512l-41.472-162.19648L375.84896 568.32h112.64z"  horiz-adv-x="1024" />

    
    <glyph glyph-name="gouwuche" unicode="&#58931;" d="M896 670.72l-102.4-353.28L267.74016 258.28352 157.23008 670.72512 896 670.72zM304.02048 558.09024l47.4368-177.03424 354.87232 39.92064 39.74144 137.10848-442.05056 0.00512zM247.77728 768l137.1904-512H814.08v-112.64H298.53184L131.16416 768h116.61312zM157.23008 670.72512l116.608 0.00512 108.34432-404.34176-114.44224-8.10496zM721.92 56.32m-56.32 0a56.32 56.32 0 1 1 112.64 0 56.32 56.32 0 1 1-112.64 0ZM353.28 56.32m-56.32 0a56.32 56.32 0 1 1 112.64 0 56.32 56.32 0 1 1-112.64 0Z"  horiz-adv-x="1024" />

    
    <glyph glyph-name="bangdan" unicode="&#58932;" d="M936.96 768v-112.64h-87.04v-532.48l-337.92-122.88-337.92 122.88V655.36H87.04V768h849.92z m-199.68-112.64H286.72v-453.5808l225.28-81.92 225.28 81.92V655.36zM286.72 768v-112.64H174.08V768h112.64z m563.2 0v-112.64h-112.64V768h112.64zM534.10304 588.8v-190.72H419.84zM493.14304 248.33024V439.04h114.26304zM534.09792 439.04512v-40.96h-40.96v40.96h40.96z"  horiz-adv-x="1024" />

    
    <glyph glyph-name="redu" unicode="&#58933;" d="M936.96512 721.92v-675.84h-849.92V721.92h849.92z m-112.64-112.64h-624.64v-450.56h624.64V609.28zM740.10624 517.12l-22.54336-163.12832-50.3296 51.85024-130.95936-212.6336-127.77984 63.81056L273.16736 46.08H87.04l0.00512 113.03424L352.47616 440.6272l145.57184-105.28256 117.52448 105.28256-51.18976 43.08992zM199.68512 278.58432V158.72h145.7408l-72.25856-112.64H87.04512v113.03936l112.64 119.46496z"  horiz-adv-x="1024" />

    
    <glyph glyph-name="tuijian" unicode="&#58934;" d="M558.08 322.56h276.48v-102.4h-276.48zM537.6 768c143.34464-24.0384 210.048-98.65216 200.03328-225.87392H936.96l-62.36672-354.80064c-18.944-107.75552-112.27136-186.31168-221.34784-186.31168H87.04L182.15936 542.12608H355.7888L537.6 768z m42.77248-128.24576l-1.03936 0.4608-169.61024-210.72896-133.00224 0.00512-55.51616-315.83744h432.04096c53.70368 0 99.85024 38.3232 110.06464 91.32032l0.34304 1.85344 39.13728 222.66368h-207.49824c18.2016 57.77408 28.22144 98.26304 30.04928 121.47712 2.7392 34.816-2.92864 55.02464-14.45376 68.00896-6.68672 7.53664-16.72192 14.58176-30.5152 20.77696zM898.36032 322.56l-18.00192-102.4H766.0032l17.99168 102.4h114.36544z"  horiz-adv-x="1024" />

    
    <glyph glyph-name="huiyuan" unicode="&#58935;" d="M145.55648 184.32l-15.60576 122.88h764.09856l-15.60576-122.88zM512 768l171.52-204.8L936.96 645.12l-81.92-645.12H168.96L87.04 645.12l253.44-81.92L512 768z m133.9136-335.3344L512 592.56832l-133.9136-159.8976-156.96896 50.73408L268.19584 112.64h487.6032l47.0784 370.7648-156.96384-50.7392zM243.48672 307.2l15.60064-122.88H145.55648l-15.60576 122.88h113.536z m650.56256 0l-15.60576-122.88h-113.54624l15.60576 122.88h113.54624z"  horiz-adv-x="1024" />

    


  </font>
</defs>
</svg>
